{"title":"Club.Reps.Season.1.DVDRip.x264-W33D","uid":8280084,"size":2494444304,"categoryP":"video","categoryS":"tv_shows","magnet":"?xt=urn:btih:1f4e33d61f3b95db13a15396f0dad104b064fec8&amp;dn=Club.Reps.Season.1.DVDRip.x264-W33D&amp;tr=udp%3A%2F%2Ftracker.openbittorrent.com%3A80&amp;tr=udp%3A%2F%2Fopen.demonii.com%3A1337&amp;tr=udp%3A%2F%2Ftracker.coppersurfer.tk%3A6969&amp;tr=udp%3A%2F%2Fexodus.desync.com%3A6969","seeders":0,"leechers":2,"uploader":"shane1989","files":11,"time":1363812648,"description":"In series 1 the show is in Faliraki in Rhodes and the series follows a team of Club 18-30 reps. Some of the main people featured in the series include; Resort manager Marie Slater, AKA &quot;Maz&quot;, Area controller Lee and Club Rep Mark.\n\n\nFormat : MPEG-4\nFormat profile : Base Media\nCodec ID : isom\nFile size : 222 MiB\nDuration : 23mn 15s\nOverall bit rate mode : Variable\nOverall bit rate : 1 333 Kbps\nEncoded date : UTC 2013-03-06 00:39:40\nTagged date : UTC 2013-03-06 00:39:40\n\nVideo\nID : 1\nFormat : AVC\nFormat/Info : Advanced Video Codec\nFormat profile : &lt;a class=&quot;__cf_email__&quot; href=&quot;/cdn-cgi/l/email-protection&quot; data-cfemail=&quot;f3bb9a949bb3bfc0ddc2&quot;&gt;[email&amp;#160;protected]&lt;/a&gt;&lt;script cf-hash='f9e31' type=&quot;text/javascript&quot;&gt;\n/* &lt;![CDATA[ */!function(){try{var t=&quot;currentScript&quot;in document?document.currentScript:function(){for(var t=document.getElementsByTagName(&quot;script&quot;),e=t.length;e--;)if(t[e].getAttribute(&quot;cf-hash&quot;))return t[e]}();if(t&amp;&amp;t.previousSibling){var e,r,n,i,c=t.previousSibling,a=c.getAttribute(&quot;data-cfemail&quot;);if(a){for(e=&quot;&quot;,r=parseInt(a.substr(0,2),16),n=2;a.length-n;n+=2)i=parseInt(a.substr(n,2),16)^r,e+=String.fromCharCode(i);e=document.createTextNode(e),c.parentNode.replaceChild(e,c)}}}catch(u){}}();/* ]]&gt; */&lt;/script&gt;\nFormat settings, CABAC : Yes\nFormat settings, ReFrames : 4 frames\nCodec ID : avc1\nCodec ID/Info : Advanced Video Coding\nDuration : 23mn 15s\nBit rate : 1 137 Kbps\nMaximum bit rate : 4 000 Kbps\nWidth : 688 pixels\nHeight : 384 pixels\nDisplay aspect ratio : 16:9\nFrame rate mode : Constant\nFrame rate : 25.000 fps\nColor space : YUV\nChroma subsampling : 4:2:0\nBit depth : 8 bits\nScan type : Progressive\nBits/(Pixel*Frame) : 0.172\nStream size : 189 MiB (85%)\nWriting library : x264 core 129 r2245 bc13772\nEncoding settings : cabac=1 / ref=3 / deblock=1:0:0 / analyse=0x3:0x113 / me=hex / subme=7 / psy=1 / psy_rd=1.00:0.00 / mixed_ref=1 / me_range=16 / chroma_me=1 / trellis=1 / 8x8dct=1 / cqm=0 / deadzone=21,11 / fast_pskip=1 / chroma_qp_offset=-2 / threads=3 / lookahead_threads=1 / sliced_threads=0 / nr=0 / decimate=1 / interlaced=0 / bluray_compat=0 / constrained_intra=0 / bframes=3 / b_pyramid=2 / b_adapt=1 / b_bias=0 / direct=1 / weightb=1 / open_gop=0 / weightp=2 / keyint=250 / keyint_min=25 / scenecut=40 / intra_refresh=0 / rc_lookahead=40 / rc=crf / mbtree=1 / crf=23.0 / qcomp=0.60 / qpmin=0 / qpmax=69 / qpstep=5 / ip_ratio=1.40 / aq=1:1.00\nEncoded date : UTC 2013-03-06 00:02:11\nTagged date : UTC 2013-03-06 00:39:47\n\nAudio\nID : 2\nFormat : AAC\nFormat/Info : Advanced Audio Codec\nFormat profile : LC\nCodec ID : 40\nDuration : 23mn 15s\nBit rate mode : Variable\nBit rate : 192 Kbps\nMaximum bit rate : 208 Kbps\nChannel(s) : 2 channels\nChannel positions : Front: L R\nSampling rate : 48.0 KHz\nCompression mode : Lossy\nDelay relative to video : 80ms\nStream size : 32.0 MiB (14%)\nEncoded date : UTC 2013-03-06 00:33:14\nTagged date : UTC 2013-03-06 00:39:47","torrent":{"xt":"urn:btih:1f4e33d61f3b95db13a15396f0dad104b064fec8","amp;dn":"Club.Reps.Season.1.DVDRip.x264-W33D","amp;tr":["udp%3A%2F%2Ftracker.openbittorrent.com%3A80","udp%3A%2F%2Fopen.demonii.com%3A1337","udp%3A%2F%2Ftracker.coppersurfer.tk%3A6969","udp%3A%2F%2Fexodus.desync.com%3A6969"],"infoHash":"1f4e33d61f3b95db13a15396f0dad104b064fec8","infoHashBuffer":{"type":"Buffer","data":[31,78,51,214,31,59,149,219,19,161,83,150,240,218,209,4,176,100,254,200]},"announce":[],"urlList":[]}}